/* XPM */
static char *_8db9dd364d04ff3e0cd965028067d5a8isyR8CKRNJZ832S[] = {
/* columns rows colors chars-per-pixel */
"50 50 226 2 ",
"   c #AF5B04",
".  c #BA6608",
"X  c #B96D14",
"o  c #CC7C0C",
"O  c #C8750A",
"+  c #D37D0B",
"@  c #D87B09",
"#  c #C67812",
"$  c #D07D11",
"%  c #C16B09",
"&  c #5D8A37",
"*  c #648D3A",
"=  c #6B8D3C",
"-  c #708F3F",
";  c #728833",
":  c #6B963E",
">  c #72973E",
",  c #748F42",
"<  c #749442",
"1  c #7B9444",
"2  c #769A42",
"3  c #7B9B45",
"4  c #7E9C49",
"5  c #7F9549",
"6  c #6D9840",
"7  c #75A143",
"8  c #7CA345",
"9  c #7CAC46",
"0  c #7DA549",
"q  c #7DAB49",
"w  c #75AF46",
"e  c #7DB449",
"r  c #78B347",
"t  c #B9851D",
"y  c #998B2B",
"u  c #908F36",
"i  c #A69832",
"p  c #B2962A",
"a  c #94A73A",
"s  c #B3AB3C",
"d  c #CC800F",
"f  c #D8830D",
"g  c #CF8314",
"h  c #CB821B",
"j  c #C58617",
"k  c #DB8A12",
"l  c #D38C1D",
"z  c #D78612",
"x  c #DB941C",
"c  c #D5961F",
"v  c #E5840B",
"b  c #E8860B",
"n  c #F18A08",
"m  c #F4940F",
"M  c #E18B14",
"N  c #E59818",
"B  c #F59B13",
"V  c #F69710",
"C  c #F6A116",
"Z  c #F7A91C",
"A  c #F8AA1C",
"S  c #F8A519",
"D  c #FBB11E",
"F  c #EFA619",
"G  c #CB8A27",
"H  c #CD9A28",
"J  c #DC9A2B",
"K  c #D89826",
"L  c #DA9830",
"P  c #E19D25",
"I  c #C7A32D",
"U  c #CBAD38",
"Y  c #DDA637",
"T  c #DAA72C",
"R  c #E5A124",
"E  c #E5A52B",
"W  c #EBAD2B",
"Q  c #EAA927",
"!  c #F9AC20",
"~  c #F2AC25",
"^  c #ECB22C",
"/  c #FAB424",
"(  c #FCBB24",
")  c #FCB92C",
"_  c #F6B32A",
"`  c #E2A839",
"'  c #E3A935",
"]  c #EDB93B",
"[  c #F3B532",
"{  c #F4BB34",
"}  c #FCBE34",
"|  c #F4BC3B",
" . c #F5BB39",
".. c #FDC234",
"X. c #F6C23D",
"o. c #FCC53C",
"O. c #FEC93E",
"+. c #FEC22E",
"@. c #829C4B",
"#. c #859A4B",
"$. c #8B9E50",
"%. c #81AE47",
"&. c #83A44B",
"*. c #8AA44E",
"=. c #83AB4B",
"-. c #8AAB4F",
";. c #84A846",
":. c #98AD46",
">. c #84B44B",
",. c #8BB44E",
"<. c #82BA4C",
"1. c #8BBC4E",
"2. c #96BE4C",
"3. c #8CA551",
"4. c #8DAC51",
"5. c #92AD54",
"6. c #97A656",
"7. c #8EB450",
"8. c #8CBD52",
"9. c #87BA50",
"0. c #93B454",
"q. c #94BB54",
"w. c #99BB56",
"e. c #9DB35A",
"r. c #9CBC59",
"t. c #98B757",
"y. c #B9B846",
"u. c #A1BD5D",
"i. c #A0B35C",
"p. c #B0BF5A",
"a. c #A7B346",
"s. c #ABBC63",
"d. c #A8BA61",
"f. c #B4BD67",
"g. c #D7AF43",
"h. c #ECB948",
"j. c #8DC04E",
"k. c #91C44F",
"l. c #8FC051",
"z. c #94C453",
"x. c #99C556",
"c. c #9BC956",
"v. c #9CC55A",
"b. c #9ECA59",
"n. c #97C853",
"m. c #A3C55D",
"M. c #A3CB5D",
"N. c #A8CD5F",
"B. c #A8CD5E",
"V. c #A5C457",
"C. c #B8C659",
"Z. c #AAD15F",
"A. c #A7C560",
"S. c #ABC462",
"D. c #A6CB60",
"F. c #A9CE60",
"G. c #AACF61",
"H. c #AACE61",
"J. c #ABCD62",
"K. c #B2C466",
"L. c #B2CE66",
"P. c #B4CE68",
"I. c #BACE6B",
"U. c #ADD063",
"Y. c #AFD064",
"T. c #ADD064",
"R. c #AED063",
"E. c #B1D166",
"W. c #B2D267",
"Q. c #B0D165",
"!. c #B5D567",
"~. c #B2D266",
"^. c #B4D368",
"/. c #B7D569",
"(. c #B5D368",
"). c #B9D66A",
"_. c #BAD66B",
"`. c #BDD86D",
"'. c #BFD266",
"]. c #D0CA54",
"[. c #E9C549",
"{. c #FBC641",
"}. c #FDCA43",
"|. c #F4C44B",
" X c #FCCC4A",
".X c #F6C747",
"XX c #FDD14D",
"oX c #F6CB56",
"OX c #FACE53",
"+X c #F3C859",
"@X c #FDD253",
"#X c #FDD55C",
"$X c #FED95E",
"%X c #F5D25A",
"&X c #C0CC6F",
"*X c #C2D46F",
"=X c #C2DB6E",
"-X c #C8D065",
";X c #C5C972",
":X c #C4D471",
">X c #C5DC72",
",X c #CADE75",
"<X c #C9DE74",
"1X c #D2DF78",
"2X c #D4D869",
"3X c #FBD662",
"4X c #FEDA63",
"5X c #F4D46A",
"6X c #FDDD6A",
"7X c #F2D669",
"8X c #CCE075",
"9X c #D4E479",
"0X c #DAE67E",
"qX c #D1E477",
"wX c #EDE06E",
"eX c #FEE16D",
"rX c #FEE573",
"tX c #FCE57C",
"yX c #FEEB7E",
"uX c #F0E97F",
"iX c #DFE981",
"pX c #DDE780",
"aX c #FCEB82",
"sX c #FCEC8B",
"dX c #FEF28C",
"fX c #FDF292",
/* pixels */
"H.z.Y.U.<.Y.b.b.U.H.z._._.z.H.z.U.1.`.H.l.b.M.N.<.0Xb.M.z.Q.z.b._.z.H.z.U.l.x.M.H.z.Y.U.<.Y.b.b.U.N.",
"Q.!.=X/.b./.z.x.M.b.l.b.M.1.!.b.U.M./.n.8.n.N.Q.z.Q.z.N.M.Q.N.U.H.z.M.x.Q.b.H.<.Q.!.=X/.b./.z.x.M.b.",
"b.Q.G.H.b.,X,XQ.x.Y.U.=X8.z.!.H.U.M./.0XQ.N.M.M.9Xb.1.U.U.Y.N.H.9X`.Q.x.F.=XU.<.M.Q.G.H.b.,X,XQ.x.Y.",
"b.z.x.M.<.U./.b.1.iXF.U.z.b.n.z.M.8.z.>Xb.z.`./.Q.N.z.b.l.b.z.1._.H.b.b.8XU.U.l.M.z.x.M.<.U./.b.1.0X",
"0XN.H.b./.8.N.H.(.z.b.Q.b.9XQ.b.H.H.8.Q.n.(.b.z.Q.Y.~.,Xb.^.b.M.v.b.^.B.z.B.Q.z.iXN.H.b./.8.N.H.(.z.",
"M.x.b.H.b.U.Y.l.M.b.N.M.H.G.j.H.b.N.N.Q.H.z.N.N.b.N.H.z.H.n.H.M.Y.U.<.H.M.M.N.H.M.x.b.H.b.U.Y.l.M.M.",
"Q.z.M.H.H.z.B.n.!.H.b.M.n./.8.N.M.Y.z.H.b.N.Q.M.M.M.N.b.M.b.Q.M.M.M.n.`.N.M.M.n.(.z.M.H.H.z.B.n.!.H.",
"/.z.`.~.<.x.l.M.`.<.H.8.z.!.b.v.<X1.x.<.M.Q.x.M.j.8.N.U.1.iXz.8.8.x.N.Q.z.x.8.n._.z.`.~.<.x.l.M.`.<.",
"U.b.Q.Q.1.J.x.>XY.v.M.M.M.Y.B.b.`.z.H.m.z.,Xb.b.G.j.Y.H.z.>Xb.x.F.n.iXx.b.B.z.H.Y.b.Q.Q.j.J.x.>XQ.v.",
"8.Q.b.n.(.b.(.b.B.Q.M.b.M.e Q.M.z.H.b.Q.^.n.Q.Q.k./.j.v.Q.z.M.H.N.(.j.Q.Q.n.H.n.8.Q.b.n.(.b.(.b.B.Q.",
"M._._.z.H.b.z.M.z.n.,X`.M.M.M.,Xv.v.M.b.<.M.z.~.iX1.Y.M.8XH.z.N.b.1.Q.1.H.9XN.Q.M._._.z.H.b.z.M.z.b.",
"H.b.z.M.n.D.H.!.B.M.=X8.x.M.x.x.z.x.x.C.a.g.I E x N B B y.j.N.x.J.b.>Xb._.Y.8.H.N.M.z.M.n.F.H.!.H.N.",
"M.z.x.M.H._.z.H.1Xj.P.J.z.1.C.s I N m V B S A D / ( ( ( ^ 8.H.Q.U.1.>X=Xn.>Xx.H.z.Q.z.M.H._.z.Y.(.N.",
"H.x.v.M.8.G.b.M./.m.M.J.y.K N B A D ( +...o.O.XXXX}. .XX@XC.x.x.G.x.Y._.M._.b.(.b.x.v.M.8.Y.M.M.8Xb.",
"H.z.9X>Xz.M.1.1.m.q.a N B A ( ..@X@X@X4X#X$X4X4X4X4Xh.|.6X6XM.b.b.<.n.H.j.j.U.r W.M.qX>Xz.N.j.j.H.r ",
"Z.=XM.M.M.1X(.J.1.A.x V A )  X@X4X4X4XOXOXeXrXrXrXrXrXrXeXrX-X_.,X/.Q.l.Y.U.U.z.Z.=XN.M.N.9X_.Q.z.Q.",
"b.z.M.H.1.Q.*Xv.8.I.M B A }  X$X6X6XeX6XtXyX6X|.OXyXaXyXrXyXwXc.<X/.N.M./.=XU.<.b.z.N.H.j./.<XN.z.>X",
"Y.b.M.n.v.8.v.x.w.m.M A / O.}.}.OX4XtXsXsXsXdXaX5X+XaXdXdXaXaX2XM.b.H.N.U.M.Y.n.8Xb.M.b.M.z.N.M.M.~.",
"H.M.M.M.x.v.m.7.r.>.v A / }. XXX@X@X@X$X6XtXsXfX5X+XaXfXdXdXdXaX'.U.8.H.n.M.H.H./.M.M.N.b.D.Y.z.F.n.",
"v.8.M.M.J.x.v.,.w.u.v A / }. XXX|.E  X$X3X4X4X6XtXaXsXdXdXsX%XsXuXB.n.Y.H.H.b.n.v.8.M.N.Q.M.H.n.N.Q.",
"Y.B.M.J.z.e q.7.I.%.v Z / O. X XJ k X.OX4X4X4X6X6X6X+X5XrXtXaXrXtX7Xk.9Xb.8.M.z.iXN.N.Q.n.<.M.b.9Xn.",
"H.M.`.L.e m.%.u.t.7 v Z / O.}. X X.XOX$X3X4X4X4X3XP O # g.6XeXeXeXoX<Xx.z.N.8.M.H.z.`.!.<.H.8./.H.8.",
"b.U.x.x.m.w.r.w.0.0.v S ) o.}. X X| # X G #X4X4XOXR f O o 3X6X4X6XOX].H.Y.b.B.M.x.U.b.b.H.N.Q.U.x.Y.",
"M.B.(.1.A.w.>.4.0 &.v S / o.}.}. X[ O .   h.$X$X#XX.W Q J 3XG h %X4X%X].V.>XQ.B.z.`._.8.Q.N.z.M.8.0X",
"Y.J.x.m.1.q 0.-.;.3.b C / } }.}.}..XQ R o h.#X#X$X#XOX|.3X3XJ P %X4XoX3X2X>X8.W.H.b.M.H.n.8.H.N.Q.z.",
"N.n.e >.,.:X4.s.e.> v B ! } {.}.}. X|.` Y OX] g l oX$X$X$X$X3X#X$X4X%X$X].1.z.n.M.H.<.l.n.iXM.qX>Xn.",
"M.q.x.v.0.0.&.&.i.2 v B A ) O.}.}.}.}.}.}. XN o o K @X#X#X#X#X#XoX|.$X4X$X%XV.(.z.N.b.N.M.H.z.b.`.H.",
"H.q.P.A.9 0.0 3 &.2 f V A / x h | }.}.}.}.}.{ R Q X.@X@X@X@X@X@XY g |.#X#X X].8.Q.x.=X_.1.H.z.z.`.<.",
"H./.A.r.0.S.=.&.< 4 f V A ~ o O l {.O.}.{.}.}.}.' ]  X X XXXXXXX@X|.@X@X@X#X%X2.Q.>XQ.H.N.<XM.N.z.M.",
"z.x.m.u.%.d.f.*.2 5 z V Z _ k + L O.O.O.{.{.}.OXK `  X X XK  X X` X h.XXXX X[.;.n.b.Q.Q.n.>X0XY.b.Y.",
"D.8.,.,.0 =.&.3 = 6.g m S !  .` {.o.o.o.W J | }.}.}.}.}.}.}.}. X` g ]  X] o O s (.z.z.n.8.x.N.n.l.9X",
"A.v.w.q.0.&.4.4 @.= j n C A ) } ....o.Q O . X X.O.}.}.' G G | }.}.}. X X{. .X.] -Xm.M.M.H.x.H.b.J.z.",
"v.,.q.w.0.4.4.2 4 4 t n m C / } } ..{ F z + # X.X.O.J . % . # o.}.}.}.X.' }. X Xy.8.x.M.M.N.H.z.M.H.",
"m.r.w.r.7.7 -.8 6.2 y @ n n m ! / _ _ _ [ E  .^ l {.+ + f k $ ] {.}.}.] $ ' }.}.[.w.v.A.b.1.N.n.>Xb.",
"m.>.I.m.: 4.: *.3.& @.= ; u y p H j c p i s U | { X.+ o d z x } ..O.O.O.| | {.}.}.:.:XG.w m.>.H.Q.r ",
"M.I.q.w.,.0.5.i.*.3.2 1 1 < 5 - , < < 5 = $.1 i H p y 1 1 u u i p I Y T E W [ [ { U w.m.x.D.H.=Xx.Q.",
"z.x.m.>.u.,.4.=.&.&.*.&.2 * @.#.= 1 < < , - < 1 #.1 = < $.< < @.3 4 8 &.3.:.a.:.:.p.m.1.J.v.M.v.z.>X",
"A.A.m.w.q.=.-.4.0 &.d.*.4 @.< $.< < = 5 * 1 < 6.6.& @.< *.2 2 2 4 2 4.3 0.s.=.r.w.r.m.r.x.q.v.M.M.~.",
"m.m.>.7.>.K.0.S.e.=.5.6 3 8 @.< = 2 3.$.> 6.2 3.* > 3 @.3 * 3 &.5.;.f.&.0.=.9 7.w.w.>.q.1.`.M.=X_.z.",
"9.J.z.v.A.w.9 -.&X9 d.d.&.2 5.*.8 3.3.2 * e.-.&.;X& &.&.5.8 5.5.=.: 5.K.=.;X7.m.q A.q.m.J.M.1.x.0Xz.",
"H.8.A.m.w m.q.0.w.0.=.7.-.0.=.&.e.7 -.5.8 4.4.0 -.=.4.-.2 d.0 0 0.=.0.t.7.7.q.0.m.1.A.m.e G.b.b.H.H.",
"J.L.`.L.z.J.,.,.0.q.%.7.=.,.S.0.K.,.u.,.0 7.7.=.%.r.q d.,.&X7.w.w.%.7.0.7.>.v.w A.A./.L.x.W.z.x.M.b.",
"b.U.A.D.x.:X*XA.8.m.m.L.>.>.m.r.r.w.m.:Xu.w.w.q.*X8.9 r.r.u.w.r.&XS.m.7.r.P.m.e x.A.M.D.c.,X,XQ.x.Y.",
"b.z.z.b.e M.L.x.>.1Xv.m.8.q.1.9.z.>.1._.q.9.P.J.m.v.8.q.>.q.8.>.J.m.q.q.*Xm.m.1.v.8.z.b.>.H./.b.1.0X",
"0XM.B.b.(.9.M.M.J.1.x.J.z.,XA.x.m.M.>.A.j.J.z.1.A.A.G.:Xz.J.x.x.w.z.J.m.1.m.J.j.0XM.B.b.(.8.N.H.(.z.",
"M.x.b.H.b.G.G.8.v.b.M.b.M.A.1.B.x.M.M.J.A.8.M.M.b.M.A.z.M.z.D.b.G.H.e D.b.M.M.H.b.x.b.H.b.U.Y.l.M.M.",
"Q.z.M.H.H.z.M.z.W.B.b.M.z.!.8.N.M.G.z.H.b.N.Q.M.m.M.N.v.m.x.G.b.b.M.n._.M.v.M.n.Q.z.M.H.H.z.B.n.!.H.",
"/.z.`.~.<.x.8.M.`.<.B.8.z./.b.v.<X1.x.<.M.Q.x.M.z.8.B.H.1.pXz.8.8.x.M.Y.z.x.8.n._.z.`.~.<.x.l.M.`.<.",
"U.b.Q.Q.j.J.x.>XQ.v.M.H.N.b.9Xx.`.z.H.M.z.,Xv.J.n.M.M.=XM.>Xb.x.F.n.iXx.D.M.z.H.Y.b.Q.Q.j.J.x.>XQ.v.",
"8.Q.b.n.^.b.Q.b.N.Q.H.n.B.Q.z.H.n.H.b.Q.Q.b.M.n.^.n.Q.b.H.n.M.H.N.Q.z.H.n.H.Q.n.8.Q.b.n.^.b.Q.b.N.Q."
};
