/* XPM */
static char *_78de7edf926485bf1a70fe8c8958754scE9f3PbdJXQ85Tl[] = {
/* columns rows colors chars-per-pixel */
"50 50 223 2 ",
"   c #060606",
".  c #150807",
"X  c #1A0907",
"o  c #150A09",
"O  c #1D0A08",
"+  c #120706",
"@  c #1E110F",
"#  c #191816",
"$  c #261A18",
"%  c #251413",
"&  c #32251C",
"*  c #2A2019",
"=  c #372A25",
"-  c #2C3033",
";  c #363436",
":  c #2D2D2A",
">  c #1E2116",
",  c #4D392C",
"<  c #463628",
"1  c #453B3C",
"2  c #433839",
"3  c #49362B",
"4  c #394B22",
"5  c #47482A",
"6  c #5E4736",
"7  c #584633",
"8  c #5A5934",
"9  c #4B5A2E",
"0  c #624A38",
"q  c #69533E",
"w  c #596836",
"e  c #5C7738",
"r  c #4E6734",
"t  c #677A3D",
"y  c #64613B",
"u  c #333C46",
"i  c #483D41",
"p  c #3C4147",
"a  c #3B4752",
"s  c #365167",
"d  c #48484B",
"f  c #564945",
"g  c #474D54",
"h  c #495358",
"j  c #565658",
"k  c #4C564B",
"l  c #6B5742",
"z  c #755C46",
"x  c #63595C",
"c  c #5B7446",
"v  c #566749",
"b  c #7A614B",
"n  c #69775A",
"m  c #6B724B",
"M  c #555D68",
"N  c #4D5A69",
"B  c #596469",
"V  c #5C6A74",
"C  c #5D7064",
"Z  c #666769",
"A  c #6A796A",
"S  c #666D76",
"D  c #6B737B",
"F  c #77797C",
"G  c #77616C",
"H  c #B73C51",
"J  c #82664F",
"K  c #866A53",
"L  c #8E725A",
"P  c #93765C",
"I  c #8D5864",
"U  c #AA5A6A",
"Y  c #9A7C61",
"T  c #967760",
"R  c #8C7174",
"E  c #B26776",
"W  c #8E4D5D",
"Q  c #CE6679",
"!  c #E85471",
"~  c #658A3B",
"^  c #70993E",
"/  c #6C8745",
"(  c #798C47",
")  c #789945",
"_  c #76964E",
"`  c #7BA345",
"'  c #78A746",
"]  c #7CB449",
"[  c #77B147",
"{  c #748673",
"}  c #83A64B",
"|  c #84AA4B",
" . c #8AA94E",
".. c #89A64E",
"X. c #84B44B",
"o. c #8AB54E",
"O. c #83B94C",
"+. c #8BBC4E",
"@. c #8DAB51",
"#. c #8CA751",
"$. c #92AD54",
"%. c #91A554",
"&. c #8DB451",
"*. c #8DBD51",
"=. c #87BB51",
"-. c #94B555",
";. c #93BC54",
":. c #9BBD59",
">. c #9AB658",
",. c #A0B65C",
"<. c #AEBC65",
"1. c #8B976B",
"2. c #8FC151",
"3. c #94C353",
"4. c #9AC556",
"5. c #9BC857",
"6. c #9CC459",
"7. c #9EC959",
"8. c #97C258",
"9. c #8FC04F",
"0. c #A2C55C",
"q. c #A4CA5D",
"w. c #A8CD5F",
"e. c #AAC662",
"r. c #A7CB60",
"t. c #ABCD62",
"y. c #A6C260",
"u. c #B1CE66",
"i. c #B3C867",
"p. c #AED064",
"a. c #B2D166",
"s. c #B5D468",
"d. c #BCD56C",
"f. c #BED96D",
"g. c #C1DA6E",
"h. c #C4DA71",
"j. c #C9DD74",
"k. c #CDD776",
"l. c #DAE67D",
"z. c #D3E279",
"x. c #6A7884",
"c. c #787A83",
"v. c #637689",
"b. c #937883",
"n. c #BC7E8C",
"m. c #D66D81",
"M. c #D47687",
"N. c #E57589",
"B. c #79848B",
"V. c #7E8B96",
"C. c #768897",
"Z. c #6B8292",
"A. c #7E91A2",
"S. c #82868D",
"D. c #918A85",
"F. c #848C96",
"G. c #88939C",
"H. c #94999A",
"J. c #93948E",
"K. c #AB939D",
"L. c #8295A5",
"P. c #8E9AA4",
"I. c #8599AB",
"U. c #8999A9",
"Y. c #959DA6",
"T. c #899CB0",
"R. c #98A2AB",
"E. c #8EA2B2",
"W. c #94A5B3",
"Q. c #9AADBB",
"!. c #99AAB6",
"~. c #9FB0BE",
"^. c #A4A8AA",
"/. c #A4ADB5",
"(. c #A9B2BA",
"). c #B2B7BC",
"_. c #A8B0AB",
"`. c #A89C99",
"'. c #CF8B9A",
"]. c #EF859A",
"[. c #DD9BA9",
"{. c #F999AE",
"}. c #FB98B1",
"|. c #FBA7BB",
" X c #FBA4BA",
".X c #EDB0BC",
"XX c #DEE880",
"oX c #A5B4C1",
"OX c #A8B7C4",
"+X c #ABBAC5",
"@X c #AEBDC9",
"#X c #B0BECB",
"$X c #B1BCC4",
"%X c #FBB1C3",
"&X c #FBB7C8",
"*X c #FBBDCD",
"=X c #B4C2CD",
"-X c #BBC2C9",
";X c #B7C4D0",
":X c #B9C6D1",
">X c #BCC9D3",
",X c #C4C6C9",
"<X c #C1CCD6",
"1X c #C4CED8",
"2X c #C5D0D9",
"3X c #CBD4DB",
"4X c #CAD2D8",
"5X c #D1D9DE",
"6X c #DFDFDF",
"7X c #D1D5D9",
"8X c #FCC7D4",
"9X c #FBC0CE",
"0X c #D3DCE1",
"qX c #D9DEE4",
"wX c #DAE0E5",
"eX c #DDE3E9",
"rX c #E0E5EA",
"tX c #E6EAEE",
"yX c #E6E8EA",
"uX c #EAEDF0",
"iX c #EEF0F3",
"pX c #F2F4F5",
"aX c #F9FAFA",
/* pixels */
"t.3.p.p.O.t.7.7.t.w.3.s.s.3.w.3.t.+.d.q.2.6.0.w.O.l.7.q.3.a.3.7.d.3.t.3.p.2.3.0.t.3.t.p.O.p.7.7.p.w.",
"a.s.g.s.7.s.3.3.6.7.*.4.7.O.a.4.t.7.s.4.*.4.q.a.3.t.2.q.7.p.q.t.t.2.q.4.a.5.t.O.t.a.f.s.7.s.3.4.q.7.",
"7.p.t.t.5.j.j.t.3.e.t.d.+.+.a.q.e.6.u.z.t.q.0.6.z.4.+.t.t.t.q.t.z.d.a.3.q.s.t C S V C v ( j.j.a.4.p.",
"7.3.4.7.] t.a.4.X.z.0.q.;.8.| _ { { { %.3.*.s.u.-.} *._ c } _ X.s.t.5.6.<.{ OXOXoX~.Q.!.C.v e.7.+.l.",
"l.q.w.5.a.O.0.0.t.+.3.e.;.<._.0X3X<X=X!.e e.;.^ _ G.H.$XB.$Xh w ;.4.t...F.@X+XoXP.V.G.W.E.I.k q.s.3.",
"6.3.5.q.4.r.e.o.:.3.:.;.-.J.4Xb.E R Y.@XV.e ) w j 4X0X0X5X3X<XP.F m ~ A =X@Xc.U m.N.m.I D T.C.e 0.q.",
"u.;.6.q.q.*.6.*.e.:.;.-./ 7XI }.}.{.U P.~.f x <X4XqX0X0X5X3X4X2X1X<XD R.=Xc.].}. X|. X}.Q x.I.h u.t.",
"s.;.s.t.] ;.X.:.e.' >.~ A 4XQ {.|.|.}.E U.R.eXeXwXqX0X0X5X4X(.=X<X>XG.:X(.Q }.|.%X&X*X*X}.I I.v.%.O.",
"e.8.e.e.X.0.&.i.,.} 9 z D./.].{.|.%X|.N.c.eXW.:XwXqX0X0X5Xv.u s >X<X>X=Xj ].}.|.%X&X*X8X*XE I.A.e 7.",
"O.e.3.+.e.;.0.o.t l Y Y D.(.].{.|.%X*X'.0X3Xs L.qXqX0X0X3X=X@XZ.#X<X>X:X(.E  X|.%X&X*X8X8Xm.A.L.r p.",
"5.t.t.&.:.-.X.w J Y Y Y R 3XN.{.|.%X*XK.rX<X3X7XwXqX0X0X5X+Xd P.1X<X>X:X=Xc.{.|.%X&X*X8X8Xm.L.A.r 7.",
"0.;.o.;.o.-.w J Y Y Y P f 0XE {.|.%X*XK.rXeX<X* ; 5X0X0X5XY.D # /.>X>X:X=X+XU |.%X&X*X8X8XE I.Z.) w.",
":.o.o.;.>.( b Y Y Y Y q = (.J.].|.%X9X'.eXeX^.6X_./.0X5X+X,XaX6XZ <X>X:X=X@Xx |.%X&X*X8X8XR I.V y.w.",
"0.&.-.;./ q Y Y Y Y z 6 @ 1 qXb.{.%X*X.X,X5X6XaX,XH.0X0XH.aX6X,XS <X>X:X=X@XD |.%X&X*X8X[.B.I.c j.7.",
":.X.d.i.8 P Y Y Y L 0 & X O ).4Xb.M.*X8XK.$XaX-   - 0X0X_.yX    - <X>X:X=X#XU.].%X&X*X[.F T.B ' t.] ",
"6.i.-.) b Y Y Y Y l 3 . O O O Y.3X$Xc.S u 5XrX  Z p 0X0XF ^.  - g <X>X:X=X#X+XD G R b.L.E.C >.t.2.a.",
"*.o.-.w Y Y Y Y K 0 @ O O O O O d P.Q.G.g qXj   Z R.0X0X(.F   7XP.<X>X:X=X#X+XoXoX~.!.Z.k -.h.q.3.h.",
":.&.) 6 Y Y Y Y l 7 . O O O O O O O O o ^.d d # o Y.0X0X5XM M S /.<X>X:X=X#XoXg n m / ` 6.*.q.q.0.a.",
":.&.t J Y Y Y P 0 & O O O O O O O X . i /.j ; # o c.0X0X5X<X4XF.=X>X>X;X=X#X+X{ e.8.6.0.5.q.p.3.r.3.",
"&.` w Y Y Y Y K 6 % O O O O O . . X X D 4X: # # d 5X0X0X5X3X+XS +X>X=X=XF.F.F.9 ) ) 4.q.a.7.t.3.w.a.",
">.@.y Y Y Y Y z 6 O O O O O O O X . + d 0XR.4X0XwXqX0X0X5X5X$Xx.<X<X@X;XG.V.B ' z.q.;.u.3.O.q.7.z.3.",
"$.} l Y Y Y Y q < O O O O O O . . O X + ^.5Xc.0XwXqX0X0X5X3XW G.<X<X:XoX!.P.~ ) #.+.d.a.O.t.*.s.t.*.",
"| $.l Y Y Y Y 0 & X O O O O o O O . X O O Z 4XS.F.4X0X0X-XU ! /.<X<X>X#XB.w @.8.;.:...5.w.0.p.p.4.p.",
"}  .z Y Y Y T 6 & X O O O X O O O O O O O X ; -X4XS D g H {.n.2X<X<X>XR.g ,.-.6.3.d.s.o.a.w.3.0.2.l.",
"$.$.l Y Y Y L 6 & X O O O O O O O O O O O O O O 2 H.3X0XD.R R.2X<X$XB.W.(.( X.t.q.4.7.t.3.=.t.q.a.3.",
" .` l Y Y Y L 6 $ $ 1 1 $ O O O O O O O O O O O O . $ j S.(./.Y.B.F.=X;X@Xc X.3.6.w.O.+.3.XX0.z.h.3.",
"..) l Y Y Y z j -X3X4X3X2X(.2 O O O O O O O O O O O O O 1 <X$X-X2X2X>X4XeX1.;.t.;.q.6.w.0.w.3.6.f.t.",
"@.` q Y Y Y x 3XoXx.D W.=X1X>Xd O O O O O O O O O O O @ <XwX0X5X5X2X>XeXyXH.:.X.e.3.d.s.+.t.3.3.d.O.",
"@.>.q Y Y z 5XB.$ + X + d Q.<X=X$ O O O O O O O O O O f eXwX0XeXpXtX2XuXyX^.:.X.t.g.p.w.q.j.7.w.3.0.",
"` } 6 Y Y R >X1 , o O O . d OX:Xc.O O O O O O O O O O G.eXwX0XeXpXpXiXuXyX(.0.' 3.4.t.u.3.h.l.t.7.p.",
"@.` 7 Y Y D.+X< , o O O O o V.=X@X@ O O O O O O O O . 4XeXwX0X>X).pXiXuXyX,X@.+.u.;.3.4.*.3.w.5.*.z.",
"$. .8 Y Y R G., 6 O O O O O u oX=X= O O O O O O O O O rXeXwX0XY.o ).iXuXyX7X..;.g.0.q.q.w.8.t.7.t.3.",
"..` 8 Y Y b ; z 6 O O O O O o !.=X2 O O O O O O O O $ rXeXwX>Xj O = iXuXyXeX( ;.;.*.5.q.q.q.t.3.0.t.",
"@...w Y Y Y Y J 6 @ O O O O . B.=Xi O O O O O O O O $ rXeXwX3XR.B - ^.rXyXF.B ` d.6.0.t.q.+.w.5.h.7.",
"@.^ m Y Y Y Y K 6 % O O O O O V =X2 O O O O O O O O @ rXeXwX0X3X=XQ.A.M B.W.V | } ~ h.a.[ 0.O.r.a.] ",
" .,.t Y Y Y Y P 6 $ O O O O O M =X; O O O O O O O O X ).eXwX0X5X3X2X;X@X@XoXL.B.V.g 6.q.7.t.t.g.6.a.",
"} | t P Y Y Y P 0 & O O O O O B @X: O O O O O O O O O % -XwX0X5X3X2X>X;X@XoX~.C.v.a -.9.u.7.q.7.3.h.",
"$.$.( z Y Y Y Y 0 = O O O O X x.=XS O O O O O O O O O O O d (.3X3X2X>X;X@XoXQ.I.C.v 0.6.7.3.7.0.0.a.",
" .@.~ l Y Y Y Y q , . O O O + T.=XW.. O O O O O O O O O O O o M P.G.G.P.B.~.!.C.V / X.3.3.h.q.g.d.3.",
") $.) q Y Y Y Y q 6 . O O O O !.=X#X$ O O O O O O O O O O X d <X:XV.iXpXyX(.j n c y.4.q.a.q.+.6.l.3.",
"@.` #.q Y Y Y Y q 6 O O O O O W.=X#XB o O O O O O O O O O & 5X4X:XV.pXpXuXyXn -.0.+.t.t.] t.q.7.t.t.",
"$.$.>.y Y Y Y Y q 6 @ O O O + L.#X=XW.; X O O O O O O O O F 0X4X:XV.uXpXuXyXn ' e.t.d.s.7.s.3.4.7.7.",
"} $.@.w Y Y Y Y q 6 $ O O O + N ~.#X@XoX; o O O X X X X O S.0X4X:X(.(.pXuXyXn ' 3.e.e.r.5.j.j.a.3.p.",
"} ` ` w Y Y Y Y q < < , , , , : L.OX@XOXoXx.# = 3 3 3 < * p 0X4X:X@XB iXuXyX{ X.8.*.3.7.O.t.s.7.+.l.",
"<... .e P Y Y z = , 6 6 6 6 6 , u I.+X+XoX!.V.h h d d h x.v.x.1X:X@X!.H.uXyXn X.z.0.q.5.s.*.w.t.s.3.",
"..` } / J T < , 6 0 6 6 6 6 6 6 7 - A.Q.oX~.Q.E.W.I.B H.x.g p h G.+X~.I.S qXc :.6.3.7.q.5.t.p.*.0.q.",
"$.` } ) & & , 7 6 6 0 6 6 6 6 6 6 6 = h C.I.E.E.I.B.rXiXtX3X@XoXG.M M g - # 9 +.t.;.7.r.t.3.w.5.s.t.",
">.` >.$.~ ~ e w w 4 5 5 5 5 5 5 7 < < = > - h N a H.iXuXyXrX#XoXQ.U.A / ) } | +.s.3.d.a.O.6.*.q.f.O.",
"$.} $.$.) @.` ,.$.} |  ...} <.} >.` @...` ,.) _ e ,XuX-XtXyX:XW.A / g.o.-.;.X.0.t.6.u.a.+.t.6.h.a.7.",
") $.| ` $.} $.}  .$. .`  .$.` @.` @.| -.>.|  .` $.e Z 7XeX-X{ t -.:.X.:.o.6.t.3.=.u.6.3.a.7.a.5.w.a."
};
