/* XPM */
static char *bc37681d91324b23c405330ed92aeeeb86B6rObNcIWdqZfl[] = {
/* columns rows colors chars-per-pixel */
"50 50 149 2 ",
"   c #76B246",
".  c #78B347",
"X  c #7AB449",
"o  c #7FB84A",
"O  c #82BA4C",
"+  c #8ABE4E",
"@  c #8CBE52",
"#  c #8CC04E",
"$  c #90C44F",
"%  c #8EC151",
"&  c #94C453",
"*  c #99C656",
"=  c #97C853",
"-  c #9BC956",
";  c #9BC65A",
":  c #9ECA59",
">  c #A0C75D",
",  c #A7CD5E",
"<  c #A7CC5F",
"1  c #A6CD5F",
"2  c #A7CD5F",
"3  c #A6CC5E",
"4  c #A5CD5D",
"5  c #A3CB5C",
"6  c #A8CD5E",
"7  c #A8CD5F",
"8  c #A8CE5F",
"9  c #AAD05F",
"0  c #A6CC60",
"q  c #A6CC61",
"w  c #A7CC61",
"e  c #A7CE60",
"r  c #A6CC60",
"t  c #A8CD60",
"y  c #A9CD60",
"u  c #A8CE60",
"i  c #A9CE60",
"p  c #A9CF60",
"a  c #A9CE61",
"s  c #AACE60",
"d  c #AACE61",
"f  c #AACF61",
"g  c #ABCF61",
"h  c #A9CE62",
"j  c #AACE62",
"k  c #AACF62",
"l  c #ABCF62",
"z  c #ABCF63",
"x  c #ACCF62",
"c  c #ADCF64",
"v  c #AECF64",
"b  c #AACE61",
"n  c #ABD061",
"m  c #ABD062",
"M  c #ACD261",
"N  c #ACD062",
"B  c #ACD063",
"V  c #ADD063",
"C  c #ADD163",
"Z  c #AED063",
"A  c #AFD063",
"S  c #AED262",
"D  c #ADD064",
"F  c #AED064",
"G  c #AFD064",
"H  c #AFD164",
"J  c #AED065",
"K  c #AFD065",
"L  c #ADD063",
"P  c #B0D263",
"I  c #B0D363",
"U  c #B0D164",
"Y  c #B0D165",
"T  c #B0D264",
"R  c #B1D265",
"E  c #B0D166",
"W  c #B1D166",
"Q  c #B2D167",
"!  c #B2D266",
"~  c #B2D267",
"^  c #B3D267",
"/  c #B3D367",
"(  c #B3D464",
")  c #B3D465",
"_  c #B3D467",
"`  c #B4D466",
"'  c #B5D567",
"]  c #B6D567",
"[  c #B6D667",
"{  c #B2D266",
"}  c #B3D268",
"|  c #B4D268",
" . c #B4D368",
".. c #B5D368",
"X. c #B6D568",
"o. c #B6D469",
"O. c #B7D569",
"+. c #B7D668",
"@. c #B7D669",
"#. c #B7D46A",
"$. c #B5D468",
"%. c #B8D669",
"&. c #B8D66A",
"*. c #B9D66A",
"=. c #BAD76A",
"-. c #BAD76B",
";. c #B9D66A",
":. c #BDD86C",
">. c #BDD86D",
",. c #BDD96D",
"<. c #BED96E",
"1. c #BED86D",
"2. c #C1DB6D",
"3. c #C1DA6F",
"4. c #C1DC6F",
"5. c #C3DC6F",
"6. c #C2DC6E",
"7. c #C5DC71",
"8. c #C5DD71",
"9. c #C5DC72",
"0. c #C7DD73",
"q. c #C5DC72",
"w. c #C9DF73",
"e. c #C9DD74",
"r. c #CADF74",
"t. c #CADF75",
"y. c #CBDF75",
"u. c #CADF74",
"i. c #CBE074",
"p. c #CCE075",
"a. c #CDE176",
"s. c #D1E477",
"d. c #D3E279",
"f. c #D5E37B",
"g. c #D3E578",
"h. c #D4E579",
"j. c #D4E579",
"k. c #D9E67D",
"l. c #DAE67D",
"z. c #DBE77E",
"x. c #DBE77E",
"c. c #DDE87F",
"v. c #DEE880",
"b. c #DEE980",
"n. c #DFE981",
"m. c #DFE981",
"M. c #E3EB82",
"N. c #F4F48D",
"B. c #F8F68F",
/* pixels */
"j & J N O J : : N j & -.-.& j & N + <.j % : 5 2 O l.: 5 & Y & : -.& j & N % * 5 j & J N O J : : N 2 ",
"Y ` 4.O.: O.& * 5 : % : 5 + ` : N 5 O.= @ = 2 Y & Y & 2 5 Y 2 m j & 5 * Y : j O Y ` 4.O.: O.& * 5 : ",
": P x j : y.y.Y * J N 4.@ & ` j N 5 O.l.Y 2 5 5 h.: + N N J 2 j d.<.Y * q 3.P O 5 P x j : y.y.Y * J ",
": & * 5 O N O.: + b.q N & : = & 5 @ & 9.: & <.O.P 2 & : % : & + -.j : : p.m m % 5 & * 5 O N O.: + l.",
"l.2 j : O.@ 2 j | & : Y : g.Y : j j @ Y = | : & Y J ) y.: } : 5 ; : | 6 & 6 Y & b.2 j : O.@ 2 j | & ",
"5 * : j : N J % 5 : 2 5 j x # j : 2 2 Y j & 2 2 : 2 j & j = j 5 J N O j 5 5 2 j 5 * : j : N J % 5 5 ",
"Y & 5 j j & 6 = ` j : 5 = O.@ 2 5 J & j : 2 Y 5 5 5 2 : 5 : Y 5 5 5 = <.2 5 5 = | & 5 j j & 6 = ` j ",
"O.& <.) O * % 5 <.O j % & ` : : w.+ * O 5 Y * 5 # @ 2 N + b.& @ @ * 2 Y & * @ = -.& <.) O * % 5 <.O ",
"N : Y Y # v * 9.Y : 5 5 5 Y 2 : <.& j 5 & y.; : x # J j & 9.: * q = b.* : 6 & j J : Y Y # v * 9.Y : ",
"@ Y : = | : | : 6 Y 2 : 5 O Y 2 = j : Y | = Y Y $ O.# : Y & 5 j 2 | # Y Y = j = @ Y : = | : | : 6 Y ",
"5 -.-.& j : & 5 & : y.3.2 2 2 p.: : 5 : O 5 & ) b.+ J 5 i.j & 2 : + Y + j f.2 Y 5 -.-.& j : & 5 & : ",
"j : & 5 = q j ` j 2 9.& ; j : : & : ; } = -.5 i.* O j 5 5 # 2 * v : 9.: -.J @ j 2 5 & 5 = q j ` j 2 ",
"5 & * 5 j -.& J f.$ O.Y ; % | 5 & j <.: O p.9 5 y.O : 5 J # j Y N + 9.4.= 7.* j & Y & 5 j -.& J | 2 ",
"j * ; 5 @ J 5 2 <.j m Y 2 q : & 2 & 5 j % -.Y 5 y.# v : & 2 * * x * J -.5 -.: | : * ; 5 @ J 5 5 p.: ",
"j & g.9.= 2 # # j = O 5 @ 5 J ) c.: 2 = X 5 5 O & | @ Y = N.5 : : O = j # # N .  .5 s.9.= 2 # # j X ",
"9 4.2 5 2 d.-.Y & Y N N * & h.5 q 5 y.7.Y 5 5 j ) j & 3.N x : -.y.O.Y & J N N & 9 4.2 5 2 d.-.Y & Y ",
": & 2 j # O.w.2 & 9.m 4.@ & & 5 j & - l.2 : Y q g.: @ = * 6 5 & w.O.2 5 O.3.N O : & 2 j # O.w.2 & 9.",
"J : : : 5 & 2 5 5 ` : j : 9.j & 5 : @ J = 2 N 2 5 Y N -.& j * * 5 : j 2 N 5 J = p.: 5 : 5 & 2 5 5 ) ",
"j 5 5 2 : r J & q & 2 2 j -.5 2 5 5 5 Y j * : 5 : Y Y m 2 : 2 : j N @ j = 5 j j O.5 5 2 : r J & q = ",
": @ 5 2 Y 5 j = 2 } : j = 2   j : Y : Y = : Y : | & : @ 5 = Y j j : = J j j : = ; @ 5 2 Y 5 j = 2 Y ",
"Y j 2 Y = O 5 : h.& 5 @ : g.Y : Y 5 O = } ) ` j   O.) y.: J j % # x & h.: @ 5 & b.2 2 Y = O 5 : h.= ",
"j 5 <.` O j @ O.Y @ 6 * & j : : y.+ q @ = <.& : 2 O 2 2 + b.& & * % y.* & 2 @ 5 j & <.` O j @ O.j @ ",
": Y : : j 2 Y N j Y 5 5 2 & Y 5 : 6 5 Y j N J j = x * r j = 2 2 j j ) j J : 2 : * N : : j 2 Y N * J ",
"5 9 -.@ Y 2 & : & : -.4.2 & Y i.* 5 J : @ 5 & 2 g.: : 5 p.j & Y 5 & j & 5 9.N 6 & <.-.@ Y 2 & 5 @ l.",
"Y Y : x = @ j 2 : J c.; : | & j 5 5 o | = 2 2 c.Y . O.: 2 = x + ; 5 v : 9.9.@ Y j : 5 x = @ j 2 Y & ",
"6 = O % = b.5 s.7.& ; O = = | # O = h.J = c.= 2   : = j 5 X = ` 9.= N.5 : @ & = 5 j O % = b.5 s.7.= ",
"r & 5 2 5 j & ; p.: -.3.5 * 6 5 5 5 j 5 O <.Y 5 M.o j : 5 : 2 5 2 @ x w.: p.: | & 2 : 2 5 j & : <.j ",
"j = 3.-.+ j & & j 5 + 5 & q 5 2 p.& 5 5 O 2 2 @ : j * j & c.: & 2 % : j & & 6 @ Y * 3.-.+ j & & :.O ",
"N <.Y j 2 w.5 2 & j * : : & b.5 O.5 i.5 5 : : 5 $ | & y.6 7.: -.` : j & j & j % ` 9.Y j 2 w.5 2 & 5 ",
"= : Y Y = 7.l.J : v ) h.O % & Y Y : 5 N.v 6 2 = B.$ O = j J j = l.9.J : 5 h.` X = : Y Y = 7.l.J : J ",
"j & & = @ * 2 : % h.5 5 : O.5 @ : & % J = & :.O.& Y 2 N + 5 & @ 5 : : 5 9.: j = -.& & = @ * 2 : % g.",
"N 2 2 5 j * j : v & 5 j 5 9.j 5 2 2 & Y : q : = j Y Y -.5 j 5 5 5 2 > j & 2 J : i.2 2 5 j * j : v & ",
"5 & : 6 j 2 j & 5 j 5 2 : j O j : j 5 Y : & j 5 j : 2 % 5 = J 2 j 2 # N 2 2 5 5 : & : 6 j 2 j & 5 j ",
"j 5 5 x 5 @ 2 = 9.: 5 * : 9.> 5 j 6 @ 5 j N ` 2 @ N N | 5 5 N & & 6 = y.5 & 5 = y.: 5 x 5 @ 2 = 9.: ",
"j + y.` . 5 O j Y   N % # j = > h.o 5 . = Y @ 5 = . 5 5 o B.+ @ @ # Y ; @ 5 O = j + y.` . 5 O j Y X ",
"9 4.5 j 5 j j 4.N Y : 2 2 5 Y : 2 5 2 | : 4.j 2 j 5 2 j 2 5 6 5 Y 5 g.5 x 5 5 j r j 5 j 5 j j 4.* Y ",
"= 5 N & } 5 2 : : 2 J N 5 + Y -.& 2 2 2 5 : 2 j ) j & 5 <.: * x 2 5 = 5 j Y N : & -.m & } 5 2 : & 9.",
"N Y N 5 5 & : 2 & 2 f.J 5 J : -.5 5 & j # 2 : w.w.O Y : -.5 5 * : & Y & O.p.& Y 2 j N 5 5 & : 5 5 ) ",
"2 j @ * = 7.2 9.O.: Y + = 5 j & % = -.Y = y.: -.O & 5 2 5 O : 2 -.: c.: m * % : 5 2 @ * = 7.2 9.-.= ",
"@  .: j | 2 # * c.$ 9.y.; @ Y j : Y Y = . 9.) 5 B.  5 ; | = Y Y : O x g.* b.:  .@ | : j | 2 # * c.& ",
"x & J N O Y 5 : j j & 2 5 v : * -.+ 5 j & j j & 2 5 q 2 + w.& & N * 6 x : : 5 : N & J N O Y 5 : j j ",
"Y ` 4.O.: O.& * 5 : % : & * 9.6 y.: -.= @ 5 5 & & | % <.5 l.5 m j & : 5 * & j O Y ` 4.O.: O.& * 5 : ",
": P x j : y.y.Y * J N 4.@ & ` j x 5 O.l.Y 2 5 5 h.: + m N v 2 j d.<.Y & j 4.P O 5 P j j : y.y.Y * J ",
": & * 5 O N O.: + b.q N & : = & 5 @ & 9.: & <.O.P 2 & : % : & + -.j : : p.m m % 5 & * 5 O N O.: + l.",
"l.2 j : O.@ 2 j | & : Y : g.Y : j j @ Y = | : & Y J ) y.: } : 5 ; : | 6 & 6 Y & b.2 j : O.@ 2 j | & ",
"5 * : j : N J % 5 : 2 5 j x # j : 2 2 Y j & 2 2 : 2 j & j = j 5 J N O j 5 5 2 j 5 * : j : N J % 5 5 ",
"Y & 5 j j & 6 = ` j : 5 = O.@ 2 5 J & j : 2 Y 5 5 5 2 : 5 : Y 5 5 5 = <.2 5 5 = | & 5 j j & 6 = ` j ",
"O.& <.) O * % 5 <.O j @ & O.: : w.+ * O 5 Y * 5 % @ 6 N + b.& @ @ * 2 Y & * @ = -.& <.) O * % 5 <.O ",
"N : Y Y # v * 9.Y : 5 j 2 : h.* <.& j 5 & y.; v = 5 5 4.5 9.: * q = b.* q 5 & j J : Y Y # v * 9.Y : ",
"@ Y : = } : Y : 2 Y j = 6 Y & j = j : Y Y : 5 = } = Y : j = 5 j 2 Y & j = j Y = @ Y : = } : Y : 2 Y "
};
