/* XPM */
static char *c65ecb3cca344d3db5c613e7b04d84984EAxTFcmjgwc4Xbz[] = {
/* columns rows colors chars-per-pixel */
"50 50 227 2 ",
"   c #010101",
".  c #181916",
"X  c #272C19",
"o  c #2C361C",
"O  c #353A1B",
"+  c #272828",
"@  c #2D2C33",
"#  c #353439",
"$  c #373739",
"%  c #303727",
"&  c #261D29",
"*  c #433D3F",
"=  c #394626",
"-  c #3E4B2C",
";  c #734917",
":  c #444D38",
">  c #4B5638",
",  c #48532F",
"<  c #73502A",
"1  c #4B6A32",
"2  c #576837",
"3  c #527631",
"4  c #66793C",
"5  c #3E3E43",
"6  c #463F45",
"7  c #6E3C49",
"8  c #424244",
"9  c #49484B",
"0  c #525948",
"q  c #4C4B54",
"w  c #595B5A",
"e  c #545557",
"r  c #4F5249",
"t  c #615652",
"y  c #5C7145",
"u  c #5C6748",
"i  c #667247",
"p  c #6B6A5C",
"a  c #6D7450",
"s  c #5D5865",
"d  c #5C5771",
"f  c #665D6B",
"g  c #645D7C",
"h  c #6B6A6D",
"j  c #656567",
"k  c #73796D",
"l  c #6D6C71",
"z  c #6B677B",
"x  c #746D79",
"c  c #77777B",
"v  c #727067",
"b  c #995411",
"n  c #B07218",
"m  c #9D6628",
"M  c #DB7B16",
"N  c #C93C6F",
"B  c #B15A79",
"V  c #A8707E",
"C  c #CB4678",
"Z  c #5E8D38",
"A  c #67883A",
"S  c #6B933C",
"D  c #659A3C",
"F  c #70933E",
"G  c #5EAC31",
"H  c #5DAD2F",
"J  c #69A83F",
"K  c #6E8141",
"L  c #758A44",
"P  c #669645",
"I  c #749442",
"U  c #7C9B46",
"Y  c #799746",
"T  c #74895A",
"R  c #6CAB42",
"E  c #7AAA46",
"W  c #74B244",
"Q  c #7BB546",
"!  c #7FBA45",
"~  c #7CB54B",
"^  c #7EB949",
"/  c #6C8B59",
"(  c #F48917",
")  c #849B4D",
"_  c #879A50",
"`  c #878F4F",
"'  c #85A84C",
"]  c #84B54A",
"[  c #84BB4B",
"{  c #8ABD4E",
"}  c #84B549",
"|  c #8BA852",
" . c #95A956",
".. c #85BA50",
"X. c #8CBD52",
"o. c #8DB452",
"O. c #94BC54",
"+. c #9CBD5A",
"@. c #97B857",
"#. c #A1BB5C",
"$. c #A0AC5D",
"%. c #9CA966",
"&. c #87C149",
"*. c #8CC24D",
"=. c #91C54E",
"-. c #8EC150",
";. c #94C453",
":. c #99C656",
">. c #97C853",
",. c #9BC956",
"<. c #9CC55A",
"1. c #9ECA59",
"2. c #97C358",
"3. c #A4C45E",
"4. c #A3CB5C",
"5. c #A9CD5F",
"6. c #A7D05D",
"7. c #A6CB61",
"8. c #ABCE62",
"9. c #A8C461",
"0. c #B1CC66",
"q. c #B5CA68",
"w. c #AED163",
"e. c #B3D266",
"r. c #B5D369",
"t. c #BAD66B",
"y. c #BDD96C",
"u. c #B9D867",
"i. c #C1DA6E",
"p. c #C5DC71",
"a. c #C9DD74",
"s. c #CAD975",
"d. c #D0D377",
"f. c #CDE175",
"g. c #D3E37A",
"h. c #DAE77E",
"j. c #DBE97D",
"k. c #7D7C83",
"l. c #797689",
"z. c #766D9A",
"x. c #756C98",
"c. c #7B739C",
"v. c #7C7792",
"b. c #736D8E",
"n. c #7E76A1",
"m. c #817D94",
"M. c #847CA4",
"N. c #A96780",
"B. c #FA4D8D",
"V. c #C27190",
"C. c #FA79AB",
"Z. c #FC6DA3",
"A. c #D75789",
"S. c #86868A",
"D. c #8B8996",
"F. c #928D99",
"G. c #939395",
"H. c #9A9B9D",
"J. c #99929D",
"K. c #8C85A9",
"L. c #918BAC",
"P. c #9D9DA2",
"I. c #9895AB",
"U. c #948DB1",
"Y. c #9A93B5",
"T. c #A49ABA",
"R. c #AB99B1",
"E. c #ABABAD",
"W. c #A3A2A7",
"Q. c #ABAAB7",
"!. c #B2A9B8",
"~. c #BDBDBE",
"^. c #B5B4BB",
"/. c #EB8BB5",
"(. c #FE85B3",
"). c #FE8AB6",
"_. c #FE8DB8",
"`. c #F58CB4",
"'. c #ED99BE",
"]. c #C090B6",
"[. c #DBE681",
"{. c #E4ED83",
"}. c #E9ED86",
"|. c #EAEB87",
" X c #EBF187",
".X c #F3F38D",
"XX c #F6F490",
"oX c #A9A4C1",
"OX c #ADAAC4",
"+X c #B1AEC6",
"@X c #B5B2CA",
"#X c #B9B5CC",
"$X c #BCBACD",
"%X c #BBBAC4",
"&X c #BFBDD1",
"*X c #C5B8C8",
"=X c #C1BFD2",
"-X c #D6BBD1",
";X c #E1B6CF",
":X c #C7C7CA",
">X c #C5C3D5",
",X c #C9C6D6",
"<X c #CCCBD4",
"1X c #CDCCDA",
"2X c #C9C7D8",
"3X c #D1CEDD",
"4X c #D8C5D7",
"5X c #D3D2DD",
"6X c #DBDADB",
"7X c #D5D3D7",
"8X c #E6C7D8",
"9X c #F3CEDF",
"0X c #D5D4E1",
"qX c #DCDBE4",
"wX c #D8D7E2",
"eX c #FECFE1",
"rX c #F4CFE0",
"tX c #E1D8E3",
"yX c #E2E2E6",
"uX c #E4E4EB",
"iX c #EAEAEE",
"pX c #EAE3EC",
"aX c #EDEDF2",
"sX c #F4F4F5",
"dX c #FEFEFE",
"fX c #F8F6FA",
"gX c #F3EFF5",
/* pixels */
"8.-.w.w.Q e.1.1.e.8.;.y.y.;.8.X.e.[ p.8.*.1.4.5.W }.:.4.X.r.;.<.i.;.w.X.e.{ 2.4.w.-.w.w.Q e.1.1.e.5.",
"e.r.p.t.1.y.*.2.4.1.X.,.4.[ y.,.+.X Y ;...,.5.t.*.r.*.8.1.e.5.w.5.{ 4.2.r.,.e.Q t.r.p.t.1.y.*.2.4.,.",
",.r.8.8.,.g.g.r.2.8.w.f.[ *.y.w. .w j . o 2 o.:.{.>.[ e.w.r.5.8.h.i.r.;.4.a.e.~ 4.r.8.8.,.g.g.r.2.8.",
",.*.2.4.W w.t.,.Q .X4.w.2.1.*.X.U G.sXsX:XG.$ = o.5.;.>.X.,.2.[ y.8.,.<.h.5.w.{ 1.*.2.4.W w.t.,.Q |.",
"}.4.8.,.p.~ 5.8.y.&.1.r.>.{.r.,.I W.qXyXiXsXfX~.r 2 @.g.,.t.,.4.2.,.y.5.*.8.r.&..X4.8.,.p.~ 5.8.y.*.",
"<.2.1.8.>.e.e.{ 1.1.5.1.8.8.[ e.A E.5XqXqXqXyXaXyXw 2 X.8.*.w.1.e.e.W w.4.4.5.w.<.2.,.8.>.e.e.{ 1.4.",
"r.;.I ' 9.;.8.>.t.w.1.4.>.y...5.A P.=X0X0XqXqXyXuX6Xr @.4.>.r.4.1.4.=.p.5.4.4.=.t.;.1.8.e.;.8.>.t.8.",
"y.{ , G.: > 3 ' q.W e.{ -.t.1.<.$.l.OX1X5X0XwXqXyXuXE.L Q .X{ X.X.2.4.r.X.<.X.;.i.{ p.r.Q <.{ 4.p.Q ",
"e.:.> sXsX6X~.S.0 > I O.4.r.5.,.q.8 T.OX1X1X^.E.^.7X7Xu { g.1.:.8.*.XX;.1.8.;.w.e.:.r.t.[ r.;.g.w.<.",
"[ t.0 uXtXiXgXsXfXyXE.r A R t.4.*.= I.I.F.e H.~.W.j H.u ) 2 0 i ' t.! y.r.;.w.=.[ t.>.*.y.,.y.>.8.r.",
"4.y.j qX0XwXqXyXuXiXaXE.S.: U h.o.= + @ c iXdXdXdXsXW.8 :XsXfXuXE.y t.! 5.{.4.r.1.y.p.X.w.1.-.7.{ 1.",
"8.,.j 0X0X0X5X8XtXyXqXE.uX~.: 2 % l ^.q sXdXdXdXdXdXsXc 6XdXdXdXdX~.` 2.y.w.[ 8.5.1.;.5.*.7.8.t.w.5.",
"4.X.w ,X1X3X4XC.Z.C.'.8XyXiXE.@ ^.uX^.H.dXdXdXtXJ.!.dX:XH.dXJ.x 3XfXp f.-.a.2.4.P @.;.4.w.i.{ e.r.5.",
"8.<.- OX,X1X4X_.).).C.B./.tXuXh yXuXk.sXdXdXdXx E.9 4XiXh pXf h f dXG.y.4.i.o.t V.N.i 1...e.4.4.h.,.",
"8.[ ` l.T.>X-X_.)._._.(.Z./.qXW.~.uXc dXdXdXdX6   . *XiXh gX+   s fXG.0.[ [ t `._._.V #.*.5.[ [ e.R ",
"6.f.4.% L.T.#X'.).).).).).Z.-X<XE.qXD.6XdXdXdX!.& f fX6XS.dX*Xs ,XdXv { e. .N.(.)._.V.Y 8.[.y.t.{ t.",
",.-.7.#.% K.U.R./.).).(.(.C.;X1X%XqX:Xj dXdXdXdXdXdXdXG.:XdXdXdXdX:X. O o X A.(._.C.B | ! t.g.4.-.f.",
"e.1.4.>.@.= z Y.Y.]./.).).(.-X=X5X0X5Xj 6XdXdXdXdXdX7X9 sXdXdXdX:Xl E.P.<XH.C B.B.B.p >.7.{ 5.4.4.r.",
"w.5.4.4.,.<.K : s v.L.T.R.R.T.+X1X3X5X$Xs P.6XuX6XW.l P.k.G.G.S.G.5XiXW.aXiXx C N 7 2 4 A ' 9.;.8.*.",
"<...4.5.t.4.8.{ L 2 0 9 l.K.Q.&X1X1X1X1X$Xl.l c l S.>XwXqXqX7XyXyXqXuXyXiXaX7XG.h = 4.3.#.I | ;.4.t.",
"e.w.4.r.>.~ 6.2.{.*.@.+ K.L.$X,X1X1X1X1X1X>X=X>X,X3X0X0X0XqXqXqXqXyXuXuXuXuXiXqXF.= O.e.>.~ 6.2.{.*.",
"w.<.p.t.W r.[ y.e.] +.+ L.U.@X>X>X,X,X,X1X1X1X1X3X5X5X0X0X5X0X0X0XqXyXyXyXyXwX0Xf = L L Z 0.[ y.8...",
",.r.2.1.w.4.r.w.8.t.O.+ M.K.Y.&X&X>X>X=X>X,X,X1X1X1X1X1X3X5X0X0X0XwXwXwXqXqX1X1X@ A ;.;._ 4 3.e.>.e.",
"1.6.p.[ t.5.;.1.;.>.r.% b.K.K.+X&X&X&XQ.,X1X1X1X1X1X1X1X1X1X1X5X0X0X0X0XwX,X>XF.=  .4 E t.4.] 4.^  X",
"e.r.,.e.>.~ e.4.>.e. X2 d c.n.K.@X#X#X@XS.%X1X1X1X1X1X1X2XP.,X1X1X1X5X5X>X#X#X+ | ,.o.K ' ~ e.1.r.*.",
"5.>.~ { *..X:.j.a.*.2.D $ c.n.M.Y.@X@X#XQ.D.D.>X1X1X1X%XD.Q.1X1X1X1X1X&X+X@Xs , 1.e.~ ] A {.:.j.a.=.",
"7.O.4.5.4.5.;.2.h.>.i.a.= d z.c.n.U.OX@X@X@Xc P.k.G.k.F.Q.>X>X,X1X,X@XoXoXD.X q.X.8.1.5.<.' ;.<.i.8.",
"w.*.a.y.! 8.2.;.w.4.[ 4.I % b.z.z.c.M.U.oXI.~.7XH.^.F.$X&X&X=X=X@XoXT.T.I.+ ' [ r.;.a.y.! 7.2.-.p.Q ",
"w.a.e.5.8.g.:.8.X.w.<.,.1.A # v.b.z.z.x.x.q fXE.7XD.T.oXoXoXY.L.U.Y.Y.L.. E 8.*.t.f.w.5.8.g.:.8.X.4.",
";.,.r.r.*.a.}.8.1.8.e. XW { 3 + m.c.x.x.x.e W.h D.g n.n.M.M.K.K.K.Y.l.. U {.u.R ;.,.r.r.*.a.}.8.1.8.",
"w.;.;.,...>.4.,.[  X,.<.1.y.4.I X # v.L.c.c.c.c.x.z.z.c.z.z.n.L.D.# = @.g.;.8.>.i.;.;.,...>.4.,.[ {.",
"e.5.5.4.w.2.w.<.r.&.4.w.4.g.8.4.4.Y O . @ # @ @ q z v.D.m.l.e + o Y 3.8.*.5.e.,.j.5.5.4.w.2.w.<.r.*.",
"4.X.1.5.8.5.w.*.4.8.4.5.1.7.W e.,.w.5._ q W.+ I.k.j q 6 * + 2 o.8.5.[ w.5.5.1.4.:.X.1.5.8.5.w.*.4.8.",
"8.4.1.0.6.[ w.>.g.1.4.2.,.g.<.4.7.w.S e 1X+X5 #X>X4XeXeXeX8X> o.2.w.*.h.4.;.8.*.h.<.1.0.6.[ w.>.g.1.",
"8.Q [.u.R 8.W 8.r.J r.{ { 8.*.<. XJ = %X>Xe F.$X1X9XeXeXeXeXs 3 ..[ r.2.[ 6.~ >.8.! [.u.R 8.W 8.t.R ",
"6.f.:.8.1.w.w.f.w.t.,.5.5.4.r.,.4.I h !.Q.9 #X&X3X9XeXeXeXeXF.o ) ' d.,.e.4.5.8.7.w.,.8.4.w.w.f.2.r.",
",.4.e.&.t.1.5.:.<.5.8.w.4.[ r.y.*., 1X,Xw k.@X>X3XrXeXeXeXeXE.x w H.> +.4.w.w.,.{ i.w.&.t.1.5.,.*.f.",
"w.e.w.4.4.X.1.5.;.4.{.w.1.r.{ %.k + x k.@ S.@X=X1X8XeXeXeXrXQ.l l W.c k @.h.X.t.4.8.e.4.4.X.1.4.4.r.",
"5.w.[ 2.*.g.4.f.r.,.e.~ ,.2.i a y # E.E.+ m.@X&X1X3X8X8X8X*Xc + 5 e E.c 4 X.[ ,.4.4.[ 2.*.g.4.f.y.*.",
"[ y.,.8.y.5.[ ;..X[ g.h.<.~ q.8.' s <X5Xw 1 P P P P P v e k 1 = - W.D.p ] |.O.t.~ y.,.8.y.5.[ ;. X*.",
"e.{ e.w.W e.4.1.8.w.*.4.1.e.;.X.q.8 h S.E.3 H H H H G 0 & a 3 2  .T j Y O.O.<.<.e.{ e.w.W e.4.1.8.8.",
"e.r.p.t.1.y.*.2.4.1.X.1.;.2.a.4.a.j G.<XH.w ; n n n n m m < 1 | 2.E ' O.X.] 7.W r.e.p.t.1.y.*.>.4.,.",
",.r.8.8.,.g.g.r.2.8.w.f.[ { r.7.3.u j G., 2 X b ( M ( M b O O.<.d.q.9.o.+.t.5.E ,.e.8.8.,.g.g.r.2.8.",
",.*.2.4.W w.t.,.Q .X4.w.2.<.*...:.E E t.X.] _ b ( < p ; ( m ' E q.<.{ o.s.<.3.] 2.{ 2.4.W w.t.,.Q |.",
"}.4.8.,.p.~ 5.8.y.&.1.r.>.j.0.2.3.3.E 9.} q.- ; b < ^.< n ; U @.o.{ q.+.} +.9.Q |.<.7.:.i.~ 5.8.y.*.",
"<.2.1.8.>.e.e.{ <.1.5.:.7.7.} 7.O.+.<.3.3.I 8 h x l + s j c u o.3.3.J 3.O.O.+.3.O.O.:.7.>.e.e.{ 1.4.",
"r.;.1.8.e.;.8.>.t.8.:.<.{ e.~ 3.O.9.] +.] U # 8 8 x ^.c $ q W.W.i O.] q.+.O.+.[ q.X.:.7.e.;.8.>.t.8.",
"y.{ p.r.Q <.{ 4.p.W e.] [ 0.] | q.S U Z U 4 $ # 5 D.^.!.$ j ^.%XT I | 9.] O.] { q.] i.e.Q <.{ 4.p.Q ",
"e.:.e.t.[ r.;.g.w.<.1.8.4.X.g.E $.S U L A  .1 2 1 2 2 a 1 i 2 y K S d.E +.O.] 3.9.O.8.r.[ r.;.g.w.<.",
"..t.,.*.t.,.t.>.4.e.8.;.5.r.[ 7.] #.]  .| F I S _ S _ A Y A I U ' @.E #.] +.9.{ ~ q.2.*.t.2.t.>.4.e."
};
