/* XPM */
static char *af88d40130bd4d2e90bcc2924b34b069NGldUL0bhZWOqUaN[] = {
/* columns rows colors chars-per-pixel */
"50 50 174 2 ",
"   c #121E2B",
".  c #15232C",
"X  c #18272B",
"o  c #172F2C",
"O  c #192A2B",
"+  c #1C342D",
"@  c #1E3B2E",
"#  c #1A2E3C",
"$  c #1C3C30",
"%  c #1E333B",
"&  c #1F3C3E",
"*  c #203D2E",
"=  c #233F37",
"-  c #21353B",
";  c #233B3C",
":  c #1F452E",
">  c #21432F",
",  c #234B2F",
"<  c #2B4E2C",
"1  c #24502F",
"2  c #26592F",
"3  c #395C27",
"4  c #234037",
"5  c #25443D",
"6  c #2A443A",
"7  c #274A3E",
"8  c #294D3E",
"9  c #234B33",
"0  c #245230",
"q  c #265C31",
"w  c #285F31",
"e  c #27523F",
"r  c #2A533F",
"t  c #2C5A3F",
"y  c #33543A",
"u  c #335C3D",
"i  c #3A5D39",
"p  c #2E633F",
"a  c #2D693F",
"s  c #3E6237",
"d  c #33643E",
"f  c #3B643A",
"g  c #32683F",
"h  c #3C6B3B",
"j  c #35733E",
"k  c #3C733D",
"l  c #3E7D3F",
"z  c #456B27",
"x  c #547E23",
"c  c #426636",
"v  c #456B37",
"b  c #486F36",
"n  c #416638",
"m  c #426B39",
"M  c #467037",
"N  c #4B7436",
"B  c #4E7B36",
"V  c #44743A",
"C  c #497538",
"Z  c #43793B",
"A  c #4C7C38",
"S  c #537E34",
"D  c #1E3D40",
"F  c #253C49",
"G  c #244540",
"H  c #284347",
"J  c #264C40",
"K  c #284C40",
"L  c #2A454A",
"P  c #2A4B4B",
"I  c #275041",
"U  c #2A5540",
"Y  c #2C5B40",
"T  c #2D534D",
"R  c #2F5E4F",
"E  c #345247",
"W  c #315C4E",
"Q  c #2E6341",
"!  c #2E6B42",
"~  c #306641",
"^  c #316C41",
"/  c #396A40",
"(  c #33634E",
")  c #346B4F",
"_  c #3E6B4C",
"`  c #2F7344",
"'  c #2F7A45",
"]  c #337441",
"[  c #397642",
"{  c #357B43",
"}  c #3A7E42",
"|  c #37734F",
" . c #2B6250",
".. c #346750",
"X. c #356C50",
"o. c #377451",
"O. c #387651",
"+. c #367D52",
"@. c #397C52",
"#. c #4E7644",
"$. c #5B8821",
"%. c #43833E",
"&. c #4D843A",
"*. c #458B3F",
"=. c #4A8D3C",
"-. c #548335",
";. c #598635",
":. c #578A36",
">. c #5B8C34",
",. c #528738",
"<. c #528C39",
"1. c #4C913D",
"2. c #5D9335",
"3. c #5D9C37",
"4. c #53943A",
"5. c #569A3A",
"6. c #5A9C39",
"7. c #619533",
"8. c #649C34",
"9. c #699E31",
"0. c #5FA238",
"q. c #74AD2F",
"w. c #77B02E",
"e. c #7BB52F",
"r. c #7CBA2F",
"t. c #64A436",
"y. c #6CA432",
"u. c #67A935",
"i. c #6CAA33",
"p. c #60A438",
"a. c #70A731",
"s. c #73AC31",
"d. c #75B131",
"f. c #79B530",
"g. c #7CBA30",
"h. c #7CB83D",
"j. c #7EC23F",
"k. c #378143",
"l. c #398343",
"z. c #3C8451",
"x. c #3E8D52",
"c. c #3C9053",
"v. c #438643",
"b. c #428D41",
"n. c #45814D",
"m. c #4D9640",
"M. c #4F9940",
"N. c #5A9247",
"B. c #509C40",
"V. c #429452",
"C. c #439F54",
"Z. c #4B9F51",
"A. c #629A45",
"S. c #56AB4E",
"D. c #59B34F",
"F. c #45A153",
"G. c #45A154",
"H. c #47A554",
"J. c #4AA552",
"K. c #49A252",
"L. c #6BAD44",
"P. c #68B648",
"I. c #63B94A",
"U. c #75C444",
"Y. c #79CB43",
"T. c #80BC2E",
"R. c #85CA3E",
"E. c #8BD43D",
"W. c #96DE3B",
"Q. c #92DA3B",
"!. c #98DF3A",
"~. c #99E23A",
"^. c #80C540",
"/. c #84D441",
/* pixels */
"r T c./.#.F ) I.!.^...X.T H T x.F.z.( o.I.h.F P F.W.~.n.X.R P P | F.V.X.W C.~.E F z.U.~.L...( P H 4 ",
"= T ) V.F.) T z.J.V.W C.Q...V.G.z.( T R z.J.x.L | K.J.( z.U.N.+.G.V.) T T | K.G.T ( V.J.z.) S.j. .j ",
"a R._ o.( P T ) O.o.W H.~.E.( ( W @.P.A.( o.T L W o.O.W x.Y.Q.N.T ( ) Z.R.T @.W L T X.O...X.D.W.j.% ",
"9 m.} U ; ; ; U { ] Y ^ M.B.5 ; ; Y v.b.~ 5 ; ; ; { { Y Q v.M./ - ; G ] M.] J ; ; ; ~ { ^ Y [ M.1.. ",
"o 7 8 ; - - 8 ] { Y 5 ; r t 8 p g 8 7 8 5 % - - ^ l.^ 7 ; 8 t r r g t 5 8 8 % - - t { ] r 5 7 r r @ ",
"X % M S y 5 r t 8 ; - p ! 7 ^ { l.r % y S v ; 8 Q r 7 - r ~ r t { k.] - - S S 7 7 t t 7 - 7 p Q 7 0 ",
"o % =.d.>.f 8 r r r 5 ] l.7 ^ } ] r ; f u.y.b K 8 r t 5 Q } Y r ] { Q ; - 6.f.-.u 8 r t 8 8 ] { 7 0 ",
"@ - Q <.p.h r ] { t 5 r ^ 8 8 ^ Y r 5 8 l 3.4.7 ^ l.^ 7 8 Q Y 8 Y Q 8 8 - ! 6.p.u Y { ] r 7 Y ~ 7 @ ",
"> - 8 ! ] t Y ] t - - 7 7 ~ 8 Y Y Y 7 5 Y ] ! 7 ] ] - - 7 7 Y Y r Q r r - r ! ] 8 ~ ] r - ; 7 r p @ ",
", - y f u 8 8 Y t 5 - 7 Q k.Y ] } ^ 7 6 f d r 7 U Q 7 - 5 r ] ^ Q } { Y ; i h r 7 8 Y r ; ; 8 ^ } @ ",
"2 8 y.d.m 7 7 Y } ] ; - l.} 8 8 ^ { d B f.2.7 7 7 } l.7 - g } Q 7 Y ] ] y r.d.r 7 7 Q k.g - 7 l.] + ",
"  q.d.%.Q 8 r Y Q k.{ - k.Y 7 ; - % N f.6.! U 7 Y U { l.7 p ^ 8 5 - % 6 r.s.{ Y 8 U r ^ k.~ 7 { r + ",
"$ q.l.Q 7 Q 6.:.G r - - - - - % & I :.3.! r 8 l.r.& Y - - - - - % % 7 d e.' Y 7 ] i.b J 7 - - - - X ",
"o 7 U ; 7 ^ 5.w.>.5 - % % - % 7.d.h 5 r 7 ; Q l.w.s.r ; % % - - c f.7.D 7 Y - r ] p.d.A 5 - % % - X ",
"x r ] { t r ^ 5.7.% ; y.s.- % ] u.q.A Q { ^ 7 Q l.g.6 # -.i.c % r 1.q.8.J { { r Y { u.N # y y.7.% X ",
"< ] } ^ 7 ; 7 8 6 6 9.d.b.- 5 Y } k j { ] r ; ; J 6 % ;.s.5.t ; 8 ^ %.h ] l.Q 5 ; 7 8 ; i y.i.l % + ",
"+ p Q 8 ; % s 7.M 7 1.*.Q - 7 7 r 8 Y Q Y 5 - ; 7.>.; %.=.] 7 ; 7 8 r 8 Q Q J ; % N 2.i u 1.%.Y - @ ",
"@ 7 ! ,.y % f p.a.A Q Q J - 5 Q ^ Y 8 Y Z N % ; 4.e.>.^ Q U ; ; r ^ ~ r 8 ] >.; % Z i.9.V Q Y 7 - @ ",
"@ 5 Q 1.k 7 8 l 5.=.8 ^ -.7 Q } ] Y 7 r l =.r ; ! 5.6.u Q Z i U ] { Q 8 7 ^ 6.g ; Y %.5.Z U k C 5 , ",
": N r Q ^ 7 5 Y ^ Q 7 l.r.&.d ~ r Y h f Y ! t - r ! ^ 7 ^ p.7.h p Q r d C 7 ^ p 5 7 Q ^ Y r =.s.Z : ",
"0 p.g r ; - ; 8 ~ Y r ] 8.u.5 ; ; Y 1.&.U 7 - - 5 Q ~ r Q =.t.m % ; 7 } p.U 8 ; - ; r ~ Y Y l p.3.  ",
"@ Q ^ 7 - - ; t k.^ 8 8 ^ ] 7 7 7 7 Y ! t - - - 7 k.{ t 8 Q ] Y 5 7 7 r ! ] - - - 5 ^ } ~ 8 r ^ ! X ",
"X % 6 6 ; ; t { ^ 7 - 5 8 7 Y { l.r - ; 6 6 ; 5 } ] r ; ; 7 7 r ^ l.] - - 6 6 - ; ^ ] Q 7 - 7 8 7 > ",
"X % 9.g.M r r 5 - - 5 l.l.7 ] } } r % v f.8.8 Y 7 - - - ^ l.Y Y } } ^ - ; f.r.u Y 8 ; - - r l.{ 7 w ",
"@ - ! t.r.C 7 ^ l.{ 7 Y l.7 U ] Q 8 ; e =.f.y.5 Y l.l.r r ] Q 8 ~ ] r 7 ; { s.r.i r ] l.^ 8 Q ] 7 > ",
"> - r ] k.t Q l.^ - ; 7 7 U 7 U 7 r 7 7 ~ k.] 7 l.l.- - 7 7 r 8 7 r 7 r - Y } k.r ^ l.t - ; 7 7 r + ",
"> - 5 I Y r r Y 8 - - 7 U } Y ] { Q 5 ; J U Y 7 Y Y - - 7 r ^ ^ Q } ] r - 5 U Y 8 U Y 7 - ; 8 Y { * ",
"w & >.y.f 7 7 Y { p - ; { l.r Y { k.Y f y.>.7 7 7 { ] ; - p } Q r ^ l.] ; y.y.r 7 7 ~ { r - 7 } { + ",
"o >.s.4.~ 7 7 U ^ } g - l.Q 8 5 7 7 m y.u.l r 7 U Q } ] 5 g ] r 7 5 7 r 8.e.=.Y 7 J Y ] { t 7 l.t + ",
"+ s.5.] r Y %.V J Q 8 - r 7 5 % ; 5 -.u.l Y r ^ 2.7 Q r ; 7 7 5 ; % 5 u g.=.! 8 Q <.f U t 7 ; r 5 o ",
"+ M ^ 7 7 ! 5.y.M 7 - % % - % b -.d f h Y 7 Y l.e.-.r ; % % - - y -.C 8 C Q 5 8 ] u.7.f 5 - % % - X ",
"3 8 Q t r Q %.u.7.% - N N - % &.s.2.d U Q r r ] 6.r.7 % s N y % i u.a.M J ^ t r Q *.i.B % 6 N c % X ",
"z g } { r 7 U k v ; M f.p.- ; Q =.2.Z ] } Q 5 8 Q -.- i y.i.f - r l 3.<.Q l.] 7 7 Y V i 6 -.d.<.% o ",
"@ ] ] Y 5 - 8 f 6 8 u.8.` ; 7 8 Q Y Q ] ~ 7 - - m y % 2.u.%.8 ; 8 Y Q U ] ] U ; - y i 6 f u.5.Q - @ ",
"@ r Y u 6 % v d.8.u ] ] U - 7 r r 8 8 Y u y - ; i.r.s ^ ] Y 5 ; 8 r 8 8 U Y i ; % -.d.-.g ] ! K - @ ",
"> 7 ] u.f - r *.s.8.U Y y ; 7 ] } ~ 8 Y 1.7.; ; { i.d.d Y r 7 5 Q k.] r 7 { d.8 - Q 5.s.,.U t 8 - @ ",
"+ 7 r ] k.r 7 Q { ^ 7 l.r.Y { } Q 8 7 8 Q { ] - U { { 8 ^ u.&.^ } ] r 7 7 U { l.7 7 ! { Q r =.i.Y w ",
"q e.y U 5 - 5 8 U U 8 l.w.T.6 5 7 ! 0.;.G r - - 7 U U 7 ^ 8.r.N % 7 r b.r.& Y - - 7 r U 8 t =.e.q.  ",
"* } l.7 - - - 8 k.] Y Y l.l.; - - 7 ] l.a - - - - } k.Q Y ] l.t - - - Q l.l.- - - - p k.^ Y ~ l.{ . ",
"O ; ; % - - r } { r - - 8 8 r ^ { r ; ; % % - ; } l.~ 5 - 7 8 8 Q ] ^ - 5 & % - - p l.] 8 - ; 8 8 @ ",
"X % >.8.i 7 r 8 ; - ; ] ] 7 ] } l.r % s 9.-.5 r r 5 ; - p ] t Y } k.] - - 9.8.7 8 r 7 ; - 7 ] ^ 7 q ",
"+ % %.i.9.h 8 Y ^ p 7 ^ l.7 Q { ^ r ; u 6.s.-.J r ! ^ 7 Y { Y r ] { Y 5 - 1.d.8.u 8 Y ^ t 8 ^ { 7 , ",
"@ - Y %.4.f Y { ] 8 5 r Y r 8 Q r r 7 7 [ 4.&.7 ] l.t 5 7 t r 8 U Y 8 U - Q 1.4.r Q } ^ 7 5 r Y r @ ",
"> - 7 Q ! r t ^ t - - 7 8 ^ r Q ^ Y 7 ; U ! Q 7 ^ ^ - - 7 7 Q Q Y ^ Q r - J Q ^ 8 Q ^ 8 - ; 7 r ^ @ ",
"1 ; m A u 7 7 Y ~ 8 - 5 ^ l.U ^ } ] J y A V 8 7 r ^ t ; ; t ] ^ Y ] } Q ; C A r 7 8 Y p 7 ; 8 ^ { @ ",
", f a.i.h 7 7 Y { { 7 - l.] 8 7 t p d >.d.<.J 7 7 ] l.t ; g { Y 7 r g g m e.t.r 7 7 Q } ^ 7 7 k.^ + ",
". s.y.l Y r d d Y ] ^ - ] r 7 ; - % B s.4.! r r k 8 ] ] 7 t t 7 ; - ; 6 r.t.] Y r h u Q ] t 7 ^ 8 + ",
"$ 8.} Y 7 Q 6.2.r 8 - - - - - 6 y r A <.Q 8 r l.r.y U ; - - - - ; y u u y.` r 7 ] u.B r 7 - - - - X ",
"* 5 Y 5 8 ^ 4.d.2.; - 5 5 - % 7.f.C 7 8 8 5 Q } s.r.8 ; ; 5 ; % n f.8.7 5 Y - r ] 3.d.A ; - 5 ; - X ",
"$.t { l.t 8 Q 1.>.# 6 g.r.- - ! 3.e.&.Q l.] 7 Y { f.; % 7.r.v % e *.d.i.U l.l.8 U ! 3.M % s g.y.% X "
};
